<?xml version="1.0" standalone="no"?>
<!DOCTYPE svg PUBLIC "-//W3C//DTD SVG 1.1//EN" "http://www.w3.org/Graphics/SVG/1.1/DTD/svg11.dtd" >
<svg xmlns="http://www.w3.org/2000/svg" xmlns:xlink="http://www.w3.org/1999/xlink" version="1.1">
<metadata>
Created by FontForge 20161003 at Thu Dec  8 15:34:12 2016
 By www-data
Copyright Noah  - 11 year old typomaniac 2013
</metadata>
<defs>
<font id="5Computers-In-Love" horiz-adv-x="891" >
  <font-face 
    font-family="5Computers In Love"
    font-weight="400"
    font-stretch="normal"
    units-per-em="1024"
    panose-1="0 0 4 0 0 0 0 0 0 0"
    ascent="819"
    descent="-205"
    x-height="1152"
    cap-height="1152"
    bbox="0 -256 1152 1152"
    underline-thickness="51"
    underline-position="77"
    unicode-range="U+0020-007A"
  />
<missing-glyph 
d="M576 163v183h-184v-183h184zM759 377v184h-367v-184h367zM576 590v184h-184v-184h184zM759 805v182h-183q-77 0 -130 -53q-54 -54 -54 -129h367zM0 0v1152h1152v-1152h-1152z" />
    <glyph glyph-name=".notdef" 
d="M576 163v183h-184v-183h184zM759 377v184h-367v-184h367zM576 590v184h-184v-184h184zM759 805v182h-183q-77 0 -130 -53q-54 -54 -54 -129h367zM0 0v1152h1152v-1152h-1152z" />
    <glyph glyph-name="glyph1" 
 />
    <glyph glyph-name="glyph2" 
 />
    <glyph glyph-name="space" unicode=" " 
 />
    <glyph glyph-name="exclam" unicode="!" 
d="M256 0v256h256v-256h-256zM256 512v640h256v-640h-256z" />
    <glyph glyph-name="dollar" unicode="$" 
d="M512 256v256h-128v-256h128zM256 768v128h-128v-128h128zM0 0v256h256v256h-256v640h640v-256h-256v-128h256v-768h-640z" />
    <glyph glyph-name="percent" unicode="%" 
d="M384 0v256h256v-256h-256zM0 896v256h256v-256h-256zM0 0v768h512v384h128v-640h-512v-512h-128z" />
    <glyph glyph-name="comma" unicode="," 
d="M256 -128v128h-128v256h256v-384h-128z" />
    <glyph glyph-name="period" unicode="." 
d="M128 0v256h256v-256h-256z" />
    <glyph glyph-name="zero" unicode="0" 
d="M256 512v128h128v-128h-128zM512 256v640h-384v-640h384zM0 0v1152h640v-1152h-640z" />
    <glyph glyph-name="one" unicode="1" 
d="M0 0v256h256v640h-256v256h384v-896h256v-256h-640z" />
    <glyph glyph-name="two" unicode="2" 
d="M0 0v768h512v128h-512v256h640v-640h-512v-256h512v-256h-640z" />
    <glyph glyph-name="three" unicode="3" 
d="M0 0v256h512v256h-512v256h512v128h-512v256h640v-1152h-640z" />
    <glyph glyph-name="four" unicode="4" 
d="M512 0v512h-512v640h128v-384h384v384h128v-1152h-128z" />
    <glyph glyph-name="five" unicode="5" 
d="M0 0v256h512v256h-512v640h640v-256h-512v-128h512v-768h-640z" />
    <glyph glyph-name="six" unicode="6" 
d="M512 256v256h-384v-256h384zM0 0v1152h640v-256h-512v-128h512v-768h-640z" />
    <glyph glyph-name="seven" unicode="7" 
d="M512 0v384h-256v256h256v256h-512v256h640v-1152h-128z" />
    <glyph glyph-name="eight" unicode="8" 
d="M512 256v128h-384v-128h384zM384 640v256h-128v-256h128zM0 0v640h128v512h384v-512h128v-640h-640z" />
    <glyph glyph-name="nine" unicode="9" 
d="M512 640v256h-384v-256h384zM0 0v256h512v128h-512v768h640v-1152h-640z" />
    <glyph glyph-name="question" unicode="?" 
d="M256 0v256h256v-256h-256zM256 512v256h256v128h-512v256h640v-640h-384z" />
    <glyph glyph-name="at" unicode="@" 
d="M0 0v1152h640v-768h-384v384h128v-256h128v384h-384v-640h512v-256h-640z" />
    <glyph glyph-name="A" unicode="A" 
d="M512 640v256h-384v-256h384zM0 0v1152h640v-1152h-128v384h-384v-384h-128z" />
    <glyph glyph-name="B" unicode="B" 
d="M512 256v256h-384v-256h384zM512 768v128h-384v-128h384zM0 0v1152h640v-1152h-640z" />
    <glyph glyph-name="C" unicode="C" 
d="M0 0v1152h640v-384h-128v128h-384v-640h384v128h128v-384h-640z" />
    <glyph glyph-name="D" unicode="D" 
d="M512 256v384h-128v256h-256v-640h384zM0 0v1152h512v-256h128v-896h-640z" />
    <glyph glyph-name="E" unicode="E" 
d="M0 0v1152h640v-256h-512v-128h512v-256h-512v-256h512v-256h-640z" />
    <glyph glyph-name="F" unicode="F" 
d="M0 0v1152h640v-256h-512v-128h512v-256h-512v-512h-128z" />
    <glyph glyph-name="G" unicode="G" 
d="M0 0v1152h640v-384h-128v128h-384v-640h384v128h-256v256h384v-640h-640z" />
    <glyph glyph-name="H" unicode="H" 
d="M0 0v1152h128v-384h384v384h128v-1152h-128v512h-384v-512h-128z" />
    <glyph glyph-name="I" unicode="I" 
d="M0 0v256h256v640h-256v256h640v-256h-256v-640h256v-256h-640z" />
    <glyph glyph-name="J" unicode="J" 
d="M0 0v384h128v-128h384v640h-256v256h384v-1152h-640z" />
    <glyph glyph-name="K" unicode="K" 
d="M0 0v1152h128v-512h256v512h256v-256h-128v-256h128v-640h-128v384h-384v-384h-128z" />
    <glyph glyph-name="L" unicode="L" 
d="M0 0v1152h128v-896h384v128h128v-384h-640z" />
    <glyph glyph-name="M" unicode="M" 
d="M0 0v1152h640v-1152h-128v896h-128v-896h-128v896h-128v-896h-128z" />
    <glyph glyph-name="N" unicode="N" 
d="M0 0v1152h384v-896h128v896h128v-1152h-384v896h-128v-896h-128z" />
    <glyph glyph-name="O" unicode="O" 
d="M512 256v640h-384v-640h384zM0 0v1152h640v-1152h-640z" />
    <glyph glyph-name="P" unicode="P" 
d="M512 640v256h-384v-256h384zM0 0v1152h640v-768h-512v-384h-128z" />
    <glyph glyph-name="Q" unicode="Q" 
d="M512 256v640h-384v-640h128v256h128v-256h128zM0 0v1152h640v-1152h-640z" />
    <glyph glyph-name="R" unicode="R" 
d="M512 640v256h-384v-256h384zM0 0v1152h640v-768h-128v-128h128v-256h-256v384h-256v-384h-128z" />
    <glyph glyph-name="S" unicode="S" 
d="M0 0v256h512v256h-512v640h640v-256h-512v-128h512v-768h-640z" />
    <glyph glyph-name="T" unicode="T" 
d="M256 0v896h-128v-128h-128v384h640v-384h-128v128h-128v-896h-128z" />
    <glyph glyph-name="U" unicode="U" 
d="M0 0v1152h128v-896h384v896h128v-1152h-640z" />
    <glyph glyph-name="V" unicode="V" 
d="M128 0v384h-128v768h128v-512h128v-384h128v384h128v512h128v-768h-128v-384h-384z" />
    <glyph glyph-name="W" unicode="W" 
d="M0 0v1152h128v-896h128v896h128v-896h128v896h128v-1152h-640z" />
    <glyph glyph-name="X" unicode="X" 
d="M0 0v640h128v256h-128v256h256v-512h128v512h256v-256h-128v-256h128v-640h-128v384h-384v-384h-128z" />
    <glyph glyph-name="Y" unicode="Y" 
d="M256 0v384h-256v768h128v-512h384v512h128v-768h-256v-384h-128z" />
    <glyph glyph-name="Z" unicode="Z" 
d="M0 0v768h512v128h-512v256h640v-640h-512v-256h512v-256h-640z" />
    <glyph glyph-name="underscore" unicode="_" 
d="M0 -256v256h640v-256h-640z" />
    <glyph glyph-name="a" unicode="a" 
d="M512 640v256h-384v-256h384zM0 0v1152h640v-1152h-128v384h-384v-384h-128z" />
    <glyph glyph-name="b" unicode="b" 
d="M512 256v256h-384v-256h384zM512 768v128h-384v-128h384zM0 0v1152h640v-1152h-640z" />
    <glyph glyph-name="c" unicode="c" 
d="M0 0v1152h640v-384h-128v128h-384v-640h384v128h128v-384h-640z" />
    <glyph glyph-name="d" unicode="d" 
d="M512 256v384h-128v256h-256v-640h384zM0 0v1152h512v-256h128v-896h-640z" />
    <glyph glyph-name="e" unicode="e" 
d="M0 0v1152h640v-256h-512v-128h512v-256h-512v-256h512v-256h-640z" />
    <glyph glyph-name="f" unicode="f" 
d="M0 0v1152h640v-256h-512v-128h512v-256h-512v-512h-128z" />
    <glyph glyph-name="g" unicode="g" 
d="M0 0v1152h640v-384h-128v128h-384v-640h384v128h-256v256h384v-640h-640z" />
    <glyph glyph-name="h" unicode="h" 
d="M0 0v1152h128v-384h384v384h128v-1152h-128v512h-384v-512h-128z" />
    <glyph glyph-name="i" unicode="i" 
d="M0 0v256h256v640h-256v256h640v-256h-256v-640h256v-256h-640z" />
    <glyph glyph-name="j" unicode="j" 
d="M0 0v384h128v-128h384v640h-256v256h384v-1152h-640z" />
    <glyph glyph-name="k" unicode="k" 
d="M0 0v1152h128v-512h256v512h256v-256h-128v-256h128v-640h-128v384h-384v-384h-128z" />
    <glyph glyph-name="l" unicode="l" 
d="M0 0v1152h128v-896h384v128h128v-384h-640z" />
    <glyph glyph-name="m" unicode="m" 
d="M0 0v1152h640v-1152h-128v896h-128v-896h-128v896h-128v-896h-128z" />
    <glyph glyph-name="n" unicode="n" 
d="M0 0v1152h384v-896h128v896h128v-1152h-384v896h-128v-896h-128z" />
    <glyph glyph-name="o" unicode="o" 
d="M512 256v640h-384v-640h384zM0 0v1152h640v-1152h-640z" />
    <glyph glyph-name="p" unicode="p" 
d="M512 640v256h-384v-256h384zM0 0v1152h640v-768h-512v-384h-128z" />
    <glyph glyph-name="q" unicode="q" 
d="M512 256v640h-384v-640h128v256h128v-256h128zM0 0v1152h640v-1152h-640z" />
    <glyph glyph-name="r" unicode="r" 
d="M512 640v256h-384v-256h384zM0 0v1152h640v-768h-128v-128h128v-256h-256v384h-256v-384h-128z" />
    <glyph glyph-name="s" unicode="s" 
d="M0 0v256h512v256h-512v640h640v-256h-512v-128h512v-768h-640z" />
    <glyph glyph-name="t" unicode="t" 
d="M256 0v896h-128v-128h-128v384h640v-384h-128v128h-128v-896h-128z" />
    <glyph glyph-name="u" unicode="u" 
d="M0 0v1152h128v-896h384v896h128v-1152h-640z" />
    <glyph glyph-name="v" unicode="v" 
d="M128 0v384h-128v768h128v-512h128v-384h128v384h128v512h128v-768h-128v-384h-384z" />
    <glyph glyph-name="w" unicode="w" 
d="M0 0v1152h128v-896h128v896h128v-896h128v896h128v-1152h-640z" />
    <glyph glyph-name="x" unicode="x" 
d="M0 0v640h128v256h-128v256h256v-512h128v512h256v-256h-128v-256h128v-640h-128v384h-384v-384h-128z" />
    <glyph glyph-name="y" unicode="y" 
d="M256 0v384h-256v768h128v-512h384v512h128v-768h-256v-384h-128z" />
    <glyph glyph-name="z" unicode="z" 
d="M0 0v768h512v128h-512v256h640v-640h-512v-256h512v-256h-640z" />
  </font>
</defs>
</svg>
